<?xml version="1.0" standalone="no"?>
<!DOCTYPE svg PUBLIC "-//W3C//DTD SVG 20010904//EN"
 "http://www.w3.org/TR/2001/REC-SVG-20010904/DTD/svg10.dtd">
<svg version="1.0" xmlns="http://www.w3.org/2000/svg"
 width="260.000000pt" height="260.000000pt" viewBox="0 0 260.000000 260.000000"
 preserveAspectRatio="xMidYMid meet">
<metadata>
Created by potrace 1.14, written by Peter Selinger 2001-2017
</metadata>
<g transform="translate(0.000000,260.000000) scale(0.100000,-0.100000)"
fill="#000000" stroke="none">
<path d="M240 1300 l0 -1271 728 4 c400 2 745 7 767 11 236 42 403 129 499
257 41 55 81 147 97 219 15 70 18 280 5 345 -38 188 -167 341 -366 432 -65 30
-197 73 -231 76 -28 2 -12 16 29 23 20 4 71 21 113 39 226 95 341 244 356 461
13 190 -39 349 -151 459 -102 100 -236 159 -442 194 -98 17 -173 19 -756 20
l-648 2 0 -1271z m1708 1105 c65 -33 150 -124 187 -199 89 -181 74 -416 -36
-559 -45 -59 -145 -134 -211 -160 -28 -10 -21 -2 20 25 127 85 209 238 216
407 9 220 -69 385 -239 507 -19 13 -19 14 5 5 14 -5 40 -17 58 -26z m-892
-1105 l0 -1060 -36 0 -35 0 2 1048 c1 576 2 1053 2 1060 1 7 15 12 34 12 l33
0 0 -1060z m158 1025 c126 -60 183 -208 172 -450 -7 -153 -10 -178 -36 -281
-24 -92 -60 -171 -95 -206 l-25 -25 35 -24 c184 -125 274 -665 151 -907 -53
-105 -156 -174 -276 -184 l-35 -3 -1 1056 0 1056 35 -7 c20 -4 53 -15 75 -25z
m893 -1168 c134 -110 194 -253 194 -463 0 -58 -2 -108 -5 -112 -2 -4 -7 -27
-11 -52 -19 -126 -140 -287 -261 -346 -85 -41 -85 -41 -19 9 75 55 94 77 140
152 113 189 118 497 11 689 -37 66 -118 153 -178 194 -21 13 -38 27 -38 29 0
10 121 -62 167 -100z"/>
</g>
</svg>
