<?xml version="1.0" encoding="utf-8"?>
<!-- Generator: Adobe Illustrator 16.0.0, SVG Export Plug-In . SVG Version: 6.00 Build 0)  -->
<!DOCTYPE svg PUBLIC "-//W3C//DTD SVG 1.1//EN" "http://www.w3.org/Graphics/SVG/1.1/DTD/svg11.dtd">
<svg version="1.1" id="Layer_1" xmlns="http://www.w3.org/2000/svg" xmlns:xlink="http://www.w3.org/1999/xlink" x="0px" y="0px"
	 width="860px" height="1100px" viewBox="0 0 860 1100" enable-background="new 0 0 860 1100" xml:space="preserve">
<path fill="#61011A" d="M107.5,308.125c-14.781,0-26.875,12.094-26.875,26.875v37.121l289.746,237.844
	c34.77,28.555,84.656,28.555,119.426,0l289.578-237.844V335c0-14.781-12.094-26.875-26.875-26.875H107.5z M80.625,476.43V765
	c0,14.781,12.094,26.875,26.875,26.875h645c14.781,0,26.875-12.094,26.875-26.875V476.43L540.859,672.281
	c-64.5,52.91-157.388,52.91-221.72,0L80.625,476.43z M0,335c0-59.293,48.207-107.5,107.5-107.5h645
	c59.293,0,107.5,48.207,107.5,107.5v430c0,59.293-48.207,107.5-107.5,107.5h-645C48.207,872.5,0,824.293,0,765V335z"/>
</svg>
