<?xml version="1.0" encoding="utf-8"?>
<!-- Generator: Adobe Illustrator 16.0.0, SVG Export Plug-In . SVG Version: 6.00 Build 0)  -->
<!DOCTYPE svg PUBLIC "-//W3C//DTD SVG 1.1//EN" "http://www.w3.org/Graphics/SVG/1.1/DTD/svg11.dtd">
<svg version="1.1" id="Layer_1" xmlns="http://www.w3.org/2000/svg" xmlns:xlink="http://www.w3.org/1999/xlink" x="0px" y="0px"
	 width="860px" height="1100px" viewBox="0 0 860 1100" enable-background="new 0 0 860 1100" xml:space="preserve">
<path fill="#61011A" d="M430,980c237.482,0,430-192.518,430-430c0-237.482-192.518-430-430-430C192.518,120,0,312.518,0,550
	C0,787.482,192.518,980,430,980z M430,335c22.34,0,40.313,17.973,40.313,40.313v188.125c0,22.34-17.973,40.313-40.313,40.313
	s-40.313-17.973-40.313-40.313V375.313C389.688,352.973,407.66,335,430,335z M376.25,711.25c0-29.686,24.064-53.75,53.75-53.75
	s53.75,24.064,53.75,53.75S459.686,765,430,765S376.25,740.936,376.25,711.25z"/>
</svg>
