<?xml version="1.0" encoding="utf-8"?>
<!-- Generator: Adobe Illustrator 16.0.0, SVG Export Plug-In . SVG Version: 6.00 Build 0)  -->
<!DOCTYPE svg PUBLIC "-//W3C//DTD SVG 1.1//EN" "http://www.w3.org/Graphics/SVG/1.1/DTD/svg11.dtd">
<svg version="1.1" id="Layer_1" xmlns="http://www.w3.org/2000/svg" xmlns:xlink="http://www.w3.org/1999/xlink" x="0px" y="0px"
	 width="860px" height="1100px" viewBox="0 0 860 1100" enable-background="new 0 0 860 1100" xml:space="preserve">
<path fill="#686868" d="M430.192,329.241c-122.09,0-220.567,98.478-220.567,220.566c0,122.09,98.478,220.567,220.567,220.567
	c122.089,0,220.566-98.478,220.566-220.567C650.759,427.719,552.281,329.241,430.192,329.241z M430.192,693.205
	c-78.897,0-143.398-64.308-143.398-143.397c0-79.089,64.308-143.397,143.398-143.397c79.089,0,143.396,64.308,143.396,143.397
	C573.589,628.897,509.089,693.205,430.192,693.205L430.192,693.205z M711.228,320.219c0,28.603-23.035,51.446-51.446,51.446
	c-28.603,0-51.446-23.036-51.446-51.446s23.035-51.446,51.446-51.446S711.228,291.808,711.228,320.219z M857.313,372.433
	c-3.264-68.916-19.005-129.96-69.491-180.254c-50.295-50.295-111.339-66.036-180.254-69.491c-71.027-4.031-283.916-4.031-354.942,0
	c-68.723,3.263-129.768,19.004-180.254,69.299C21.884,242.281,6.335,303.326,2.879,372.241c-4.031,71.026-4.031,283.915,0,354.941
	c3.264,68.916,19.004,129.96,69.491,180.255c50.486,50.295,111.339,66.036,180.254,69.491c71.026,4.031,283.915,4.031,354.942,0
	c68.915-3.264,129.959-19.005,180.254-69.491c50.295-50.295,66.036-111.339,69.491-180.255
	C861.344,656.156,861.344,443.46,857.313,372.433z M765.554,803.393c-14.974,37.625-43.96,66.612-81.777,81.777
	c-56.629,22.46-191.004,17.276-253.585,17.276c-62.58,0-197.147,4.991-253.584-17.276c-37.625-14.974-66.611-43.96-81.777-81.777
	c-22.459-56.629-17.276-191.004-17.276-253.585c0-62.58-4.991-197.147,17.276-253.584c14.974-37.625,43.96-66.612,81.777-81.777
	c56.629-22.46,191.004-17.277,253.584-17.277c62.581,0,197.147-4.991,253.585,17.277c37.625,14.973,66.612,43.96,81.777,81.777
	c22.46,56.629,17.276,191.004,17.276,253.584C782.83,612.389,788.014,746.955,765.554,803.393z"/>
</svg>
