<?xml version="1.0" encoding="utf-8"?>
<!-- Generator: Adobe Illustrator 16.0.0, SVG Export Plug-In . SVG Version: 6.00 Build 0)  -->
<!DOCTYPE svg PUBLIC "-//W3C//DTD SVG 1.1//EN" "http://www.w3.org/Graphics/SVG/1.1/DTD/svg11.dtd">
<svg version="1.1" id="Layer_1" xmlns="http://www.w3.org/2000/svg" xmlns:xlink="http://www.w3.org/1999/xlink" x="0px" y="0px"
	 width="860px" height="1100px" viewBox="0 0 860 1100" enable-background="new 0 0 860 1100" xml:space="preserve">
<path fill="#61011A" d="M268.75,738.125c44.512,0,80.625,36.113,80.625,80.625v26.875l121.777-91.375
	c13.94-10.414,30.905-16.125,48.375-16.125H752.5c14.781,0,26.875-12.094,26.875-26.875V227.5c0-14.781-12.094-26.875-26.875-26.875
	h-645c-14.781,0-26.875,12.094-26.875,26.875v483.75c0,14.781,12.094,26.875,26.875,26.875H268.75z M349.375,946.406l-0.336,0.336
	l-8.566,6.383l-28.723,21.5c-8.063,6.047-18.98,7.055-28.219,2.521c-9.239-4.535-14.781-13.773-14.781-24.021v-35.777v-10.75v-0.504
	v-6.719V818.75h-80.625H107.5C48.207,818.75,0,770.543,0,711.25V227.5C0,168.207,48.207,120,107.5,120h645
	c59.293,0,107.5,48.207,107.5,107.5v483.75c0,59.293-48.207,107.5-107.5,107.5H519.527L349.375,946.406z"/>
</svg>
