<?xml version="1.0" encoding="utf-8"?>
<!-- Generator: Adobe Illustrator 16.0.0, SVG Export Plug-In . SVG Version: 6.00 Build 0)  -->
<!DOCTYPE svg PUBLIC "-//W3C//DTD SVG 1.1//EN" "http://www.w3.org/Graphics/SVG/1.1/DTD/svg11.dtd">
<svg version="1.1" id="Layer_1" xmlns="http://www.w3.org/2000/svg" xmlns:xlink="http://www.w3.org/1999/xlink" x="0px" y="0px"
	 width="860px" height="1100px" viewBox="0 0 860 1100" enable-background="new 0 0 860 1100" xml:space="preserve">
<path fill="#686868" d="M698.75,469.375c0,77.098-25.027,148.316-67.188,206.098l212.648,212.816
	c20.996,20.996,20.996,55.094,0,76.09s-55.094,20.996-76.09,0L555.473,751.563c-57.781,42.328-129,67.188-206.098,67.188
	C156.379,818.75,0,662.371,0,469.375S156.379,120,349.375,120S698.75,276.379,698.75,469.375z M349.375,711.25
	c133.584,0,241.875-108.291,241.875-241.875S482.959,227.5,349.375,227.5S107.5,335.791,107.5,469.375
	S215.791,711.25,349.375,711.25z"/>
</svg>
