<svg width="18" height="18" viewBox="0 0 18 18" fill="none" xmlns="http://www.w3.org/2000/svg">
<path d="M9 18C13.9706 18 18 13.9706 18 9C18 4.02945 13.9706 0 9 0C4.02945 0 0 4.02945 0 9C0 13.9706 4.02945 18 9 18ZM9 4.5C9.46758 4.5 9.84376 4.87618 9.84376 5.34376V9.28126C9.84376 9.74884 9.46758 10.125 9 10.125C8.53242 10.125 8.15624 9.74884 8.15624 9.28126V5.34376C8.15626 4.87618 8.53242 4.5 9 4.5ZM7.875 12.375C7.875 11.7537 8.37867 11.25 9 11.25C9.62133 11.25 10.125 11.7537 10.125 12.375C10.125 12.9963 9.62133 13.5 9 13.5C8.37867 13.5 7.875 12.9963 7.875 12.375Z" fill="#61011A"/>
</svg>
