<svg width="17" height="17" viewBox="0 0 17 17" fill="none" xmlns="http://www.w3.org/2000/svg">
<path d="M8.5019 4.14141C6.08982 4.14141 4.14429 6.08742 4.14429 8.49997C4.14429 10.9126 6.08986 12.8586 8.5019 12.8586C10.9139 12.8586 12.8595 10.9125 12.8595 8.49997C12.8595 6.08742 10.9139 4.14141 8.5019 4.14141ZM8.5019 11.3337C6.94318 11.3337 5.66887 10.0629 5.66887 8.50001C5.66887 6.93714 6.93937 5.66638 8.5019 5.66638C10.0644 5.66638 11.3349 6.93716 11.3349 8.50001C11.3349 10.0629 10.0606 11.3337 8.5019 11.3337ZM14.0542 3.96313C14.0542 4.52837 13.5991 4.97975 13.0378 4.97975C12.4727 4.97975 12.0214 4.52454 12.0214 3.96313C12.0214 3.40172 12.4765 2.94651 13.0378 2.94651C13.5991 2.94651 14.0542 3.4017 14.0542 3.96313ZM16.9403 4.99492C16.8758 3.63308 16.5648 2.4268 15.5674 1.43295C14.5738 0.439072 13.3677 0.128016 12.0062 0.0597421C10.603 -0.019914 6.39707 -0.019914 4.99385 0.0597421C3.63613 0.124222 2.4301 0.435278 1.43268 1.42915C0.435199 2.423 0.128007 3.62931 0.0597286 4.99113C-0.0199095 6.39465 -0.0199095 10.6015 0.0597286 12.0051C0.124214 13.3669 0.435179 14.5732 1.43262 15.5671C2.43004 16.5609 3.63228 16.872 4.99379 16.9403C6.39701 17.0199 10.6029 17.0199 12.0062 16.9403C13.3677 16.8758 14.5737 16.5647 15.5673 15.5671C16.561 14.5732 16.872 13.3669 16.9402 12.0051C17.0199 10.6015 17.0199 6.39848 16.9403 4.99492ZM15.1275 13.5111C14.8316 14.2546 14.259 14.8274 13.5118 15.1271C12.3931 15.5709 9.7383 15.4684 8.50192 15.4684C7.26556 15.4684 4.607 15.5671 3.49201 15.1271C2.74868 14.8312 2.17602 14.2584 1.87639 13.5111C1.43268 12.392 1.53508 9.73666 1.53508 8.50001C1.53508 7.26337 1.43647 4.60423 1.87639 3.48899C2.17222 2.74548 2.74488 2.17267 3.49201 1.873C4.6108 1.42917 7.26556 1.53159 8.50192 1.53159C9.7383 1.53159 12.3968 1.43297 13.5118 1.873C14.2552 2.16888 14.8278 2.74169 15.1275 3.48899C15.5712 4.60803 15.4688 7.26337 15.4688 8.50001C15.4688 9.73666 15.5712 12.3958 15.1275 13.5111Z" fill="#61011A"/>
</svg>
