<svg width="17" height="14" viewBox="0 0 17 14" fill="none" xmlns="http://www.w3.org/2000/svg">
<path d="M2.125 1.75C1.83282 1.75 1.59375 2.01251 1.59375 2.33333V3.13906L7.32129 8.30157C8.0086 8.92136 8.99472 8.92136 9.68203 8.30157L15.4063 3.13906V2.33333C15.4063 2.01251 15.1672 1.75 14.875 1.75H2.125ZM1.59375 5.40313V11.6667C1.59375 11.9875 1.83282 12.25 2.125 12.25H14.875C15.1672 12.25 15.4063 11.9875 15.4063 11.6667V5.40313L10.6914 9.65416C9.4164 10.8026 7.58024 10.8026 6.30856 9.65416L1.59375 5.40313ZM0 2.33333C0 1.04635 0.952929 0 2.125 0H14.875C16.0471 0 17 1.04635 17 2.33333V11.6667C17 12.9536 16.0471 14 14.875 14H2.125C0.952929 14 0 12.9536 0 11.6667V2.33333Z" fill="#61011A"/>
</svg>
