<svg width="17" height="16" viewBox="0 0 17 16" fill="none" xmlns="http://www.w3.org/2000/svg">
<path d="M5.3125 11.5005C6.19239 11.5005 6.90625 12.1724 6.90625 13.0006V13.5006L9.31347 11.8005C9.58903 11.6067 9.92438 11.5005 10.2697 11.5005H14.875C15.1672 11.5005 15.4063 11.2755 15.4063 11.0005V2.00009C15.4063 1.72508 15.1672 1.50006 14.875 1.50006H2.125C1.83282 1.50006 1.59375 1.72508 1.59375 2.00009V11.0005C1.59375 11.2755 1.83282 11.5005 2.125 11.5005H5.3125ZM6.90625 15.3756L6.89961 15.3819L6.73028 15.5007L6.1625 15.9007C6.00312 16.0132 5.78731 16.0319 5.60468 15.9476C5.42205 15.8632 5.3125 15.6913 5.3125 15.5007V14.835V14.635V14.6256V14.5006V13.0006H3.71875H2.125C0.952929 13.0006 0 12.1036 0 11.0005V2.00009C0 0.896913 0.952929 0 2.125 0H14.875C16.0471 0 17 0.896913 17 2.00009V11.0005C17 12.1036 16.0471 13.0006 14.875 13.0006H10.2697L6.90625 15.3756Z" fill="#61011A"/>
</svg>
